<svg xmlns="http://www.w3.org/2000/svg" width="2000" height="2000" viewBox="0 0 2000 2000">
  <defs>
    <style>
      .cls-1 {
        fill: #555758;
      }

      .cls-1, .cls-2 {
        fill-rule: evenodd;
      }

      .cls-2 {
        fill: #55a758;
      }
    </style>
  </defs>
  <g id="Square_-_logo_type" data-name="Square - logo&amp;type">
    <g id="logo">
      <path id="NFUG" class="cls-1" d="M2713.42,1719.55a89.133,89.133,0,0,0-18.62,2.03v138.47l0.68,15.24-6.1-10.84-100.21-144.23c-12.53-2.03-27.76.34-35.89,3.39V1938.6a94.986,94.986,0,0,0,18.62,2.03,93.005,93.005,0,0,0,18.96-2.03V1797.76l-0.68-13.55,6.1,11.51,100.55,144.23c11.18,0.34,24.38-.34,35.55-3.04V1721.58A89.878,89.878,0,0,0,2713.42,1719.55Zm305.19,36.9a92.542,92.542,0,0,0,0-35.21h-137.8V1938.6a93.08,93.08,0,0,0,18.96,2.03,91.343,91.343,0,0,0,19.3-2.03v-84.64h88.37a89.086,89.086,0,0,0,0-34.54h-88.37v-62.97h99.54Zm216.95,187.9c53.16,0,89.72-32.84,89.72-92.42V1721.58a92.234,92.234,0,0,0-18.96-2.03,89.948,89.948,0,0,0-18.96,2.03v130.68c0,33.52-17.6,55.87-51.46,55.87-33.52,0-51.46-22.35-51.46-55.87V1721.58a98.823,98.823,0,0,0-19.64-2.03,93.138,93.138,0,0,0-19.3,2.03V1852.6C3145.5,1912.87,3182.07,1944.35,3235.56,1944.35Zm332.78-124.93a80.647,80.647,0,0,0-2.03,17.61,86.668,86.668,0,0,0,2.03,18.28h40.97v48.08c-9.48,3.04-21.67,5.08-37.58,5.08-48.42,0-72.12-31.15-72.12-78.21,0-50.79,31.49-78.89,71.44-78.89,22.01,0,37.58,5.08,51.8,14.56,11.51-6.77,17.94-18.96,19.98-32.16-14.56-10.16-38.26-18.96-71.44-18.96-63.65,0-113.08,44.69-113.08,115.79,0,70.42,46.72,113.75,113.08,113.75,33.52,0,58.23-7.78,75.84-16.92V1819.42h-78.89Z" transform="translate(-2100 -204)"/>
      <path id="logo-2" data-name="logo" class="cls-2" d="M3301.53,648.992V1008.87l115.16,115.16V764.091l259.17,259.169-247.21,247.22L2852.78,694.616,3100,447.4l201.59,201.591h-0.06Zm45.69,702.918L3100,1599.12l-201.59-201.59h0.06V1267.98l-115.16-115.16,115.16-115.16L2783.31,922.5V1282.43l-259.17-259.17,247.21-247.213Z" transform="translate(-2100 -204)"/>
    </g>
  </g>
</svg>
