<svg xmlns="http://www.w3.org/2000/svg" width="4150" height="2000" viewBox="0 0 4150 2000">
  <defs>
    <style>
      .cls-1 {
        fill: #555758;
      }

      .cls-1, .cls-2 {
        fill-rule: evenodd;
      }

      .cls-2 {
        fill: #55a758;
      }
    </style>
  </defs>
  <g id="Vertical_-_logo_full_type" data-name="Vertical - logo&amp;full type">
    <g id="logo">
      <path id="Nagoya_Frontend_User_Group" data-name="Nagoya Frontend User Group" class="cls-1" d="M6270.27,669.131a89.557,89.557,0,0,0-18.65,2.036V809.886l0.67,15.262-6.1-10.853L6145.81,669.81c-12.55-2.035-27.81.339-35.95,3.392v215.37a94.769,94.769,0,0,0,18.65,2.035,92.739,92.739,0,0,0,18.99-2.035V747.479l-0.67-13.567,6.1,11.532,100.72,144.485c11.19,0.339,24.42-.339,35.61-3.053V671.167A90.435,90.435,0,0,0,6270.27,669.131ZM6420.55,723.4c-31.2,0-55.61,13.567-65.11,22.724a32.4,32.4,0,0,0,17.63,24.759c9.16-6.783,25.44-14.245,44.77-14.245,25.77,0,38.66,11.532,38.66,30.864v9.158q-16.785-6.105-39.68-6.105c-39-.339-67.82,17.637-67.82,50.875,0,32.221,23.4,52.232,70.87,52.232,27.13,0,55.28-6.784,74.27-15.941V789.875C6494.14,742.391,6462.94,723.4,6420.55,723.4ZM6388,839.732c0-15.262,12.88-21.706,31.87-21.706,13.57,0,26.12,2.034,36.63,6.444v34.6a112.107,112.107,0,0,1-33.24,5.087C6399.53,864.152,6388,854.316,6388,839.732Zm246.11-116.673c-49.17,0-87.83,32.9-87.83,83.435,0,50.2,38.32,78.686,84.78,78.686,13.22,0,23.74-2.374,33.23-6.444V886.2c0,21.707-12.88,37.986-43.07,37.986-24.07,0-39.67-9.157-50.87-22.045-12.2,4.409-20,15.262-22.38,25.1,15.94,17.637,41.38,28.829,74.61,28.829,46.8,0,80.37-27.811,80.37-74.277V745.105C6686,732.217,6661.24,723.059,6634.11,723.059Zm0.34,130.24c-28.49,0-49.17-17.976-49.17-47.483,0-29.847,21.02-49.18,49.17-49.18a61.589,61.589,0,0,1,29.84,7.123v82.078C6656.49,850.246,6647.67,853.3,6634.45,853.3Zm208.58,40.361c49.51,0,85.79-35.613,85.79-85.131,0-50.2-34.93-85.47-84.44-85.47s-85.8,35.613-85.8,85.47C6758.58,858.726,6793.51,893.66,6843.03,893.66Zm0.67-33.578c-28.82,0-46.46-21.028-46.46-51.553,0-30.864,17.64-52.232,46.46-52.232s46.46,21.368,46.46,52.232C6890.16,839.054,6872.53,860.082,6843.7,860.082Zm259.92-132.953a115.8,115.8,0,0,0-15.26,1.357c-8.14,41.039-18.31,81.739-36.63,119.386-1.01,2.035-1.69,4.409-2.71,6.783-0.68-2.035-1.69-4.409-2.71-6.783a522.023,522.023,0,0,1-40.36-119.386,126.24,126.24,0,0,0-15.6-1.357c-9.83,0-20.34,1.357-26.45,3.392,13.23,54.945,30.52,103.106,62.06,153.981-10.51,16.619-26.11,33.239-43.41,49.858,3.73,10.853,11.87,21.706,24.42,25.1,65.79-58.676,100.38-126.509,120.73-228.259A76.137,76.137,0,0,0,7103.62,727.129Zm133.73-3.731c-31.2,0-55.61,13.567-65.11,22.724,1.7,11.193,8.14,20.011,17.63,24.759,9.16-6.783,25.44-14.245,44.77-14.245,25.77,0,38.66,11.532,38.66,30.864v9.158q-16.785-6.105-39.68-6.105c-39-.339-67.82,17.637-67.82,50.875,0,32.221,23.4,52.232,70.87,52.232,27.13,0,55.28-6.784,74.27-15.941V789.875C7310.94,742.391,7279.74,723.4,7237.35,723.4ZM7204.8,839.732c0-15.262,12.88-21.706,31.87-21.706,13.57,0,26.12,2.034,36.63,6.444v34.6a112.107,112.107,0,0,1-33.24,5.087C7216.33,864.152,7204.8,854.316,7204.8,839.732ZM6247.88,1126.4a92.319,92.319,0,0,0,0-35.27H6109.86v217.75a93.365,93.365,0,0,0,18.99,2.03,91.626,91.626,0,0,0,19.33-2.03v-84.8h88.51a88.826,88.826,0,0,0,0-34.59h-88.51V1126.4h99.7Zm112.47,17.3c-30.86,0-55.62,12.21-67.82,23.06v142.12a93.474,93.474,0,0,0,19.32,1.69,91.654,91.654,0,0,0,19.34-1.69V1185.42c7.12-4.07,17.63-6.45,30.18-6.45a96.047,96.047,0,0,1,24.41,3.06c6.79-8.82,10.18-21.03,10.18-33.24C6385.78,1145.06,6374.25,1143.7,6360.35,1143.7Zm151.9,170.26c49.52,0,85.8-35.61,85.8-85.13,0-50.19-34.93-85.47-84.44-85.47s-85.8,35.61-85.8,85.47C6427.81,1279.03,6462.74,1313.96,6512.25,1313.96Zm0.68-33.57c-28.82,0-46.46-21.03-46.46-51.56,0-30.86,17.64-52.23,46.46-52.23s46.46,21.37,46.46,52.23C6559.39,1259.36,6541.76,1280.39,6512.93,1280.39Zm217.73-137.03c-34.59,0-62.74,13.57-76.98,25.44v140.08a109.448,109.448,0,0,0,38.32,0V1187.45c7.46-4.41,20.69-8.81,35.61-8.81,24.76,0,39,11.19,39,40.7v89.54a111.392,111.392,0,0,0,38.66,0v-98.7C6805.27,1173.21,6782.55,1143.36,6730.66,1143.36Zm240.12,126.17c-5.09,4.75-15.26,10.86-26.79,10.86-15.94,0-27.13-6.11-27.13-29.85v-68.85h60.02a63.641,63.641,0,0,0,1.7-15.94,58.466,58.466,0,0,0-1.7-15.27h-60.02v-42.73a84.736,84.736,0,0,0-18.66-1.7,92.957,92.957,0,0,0-19.33,1.7v42.73H6851.4a78.046,78.046,0,0,0-1.35,15.27,80.391,80.391,0,0,0,1.35,15.94h27.47v77.67c0,38.66,25.44,54.26,60.03,54.26,22.04,0,38.32-8.81,48.15-17.29C6985.7,1285.81,6978.91,1274.96,6970.78,1269.53Zm204.46-53.25c0-43.07-30.52-72.58-73.59-72.58-45.78,0-80.71,35.95-80.71,85.81,0,52.57,34.59,84.45,82.75,84.45,32.22,0,53.24-11.87,66.81-22.72-1.36-9.84-8.14-20.69-16.62-26.12-10.51,7.46-24.08,16.62-47.48,16.62-26.79,0-43.07-16.28-46.12-42.73h113.61A173.32,173.32,0,0,0,7175.24,1216.28Zm-114.62-2.71c2.71-22.05,17.3-38.67,41.03-38.67,26.12,0.34,35.95,19.68,35.95,38.67h-76.98Zm248.35-70.21c-34.59,0-62.73,13.57-76.98,25.44v140.08a92.445,92.445,0,0,0,18.99,1.69,91.5,91.5,0,0,0,19.33-1.69V1187.45c7.46-4.41,20.69-8.81,35.61-8.81,24.76,0,39,11.19,39,40.7v89.54a111.392,111.392,0,0,0,38.66,0v-98.7C7383.58,1173.21,7360.86,1143.36,7308.97,1143.36Zm268.2-59.01a88.321,88.321,0,0,0-18.99,1.69v63.09c-8.82-3.39-19-5.09-32.56-5.09-48.16,0-87.49,32.9-87.49,85.81,0,54.27,35.94,84.11,88.85,84.11,26.11,0,52.9-7.12,69.52-15.94V1086.04A95.7,95.7,0,0,0,7577.17,1084.35Zm-50.87,196.04c-29.17,0-49.17-19.68-49.17-51.22,0-31.2,21.36-51.21,49.85-51.21,11.53,0,22.04,1.35,31.2,7.12v90.22A84.119,84.119,0,0,1,7526.3,1280.39ZM6199.39,1734.94c53.24,0,89.87-32.9,89.87-92.59V1511.77a93.365,93.365,0,0,0-18.99-2.03,90.75,90.75,0,0,0-18.99,2.03v130.92c0,33.58-17.64,55.96-51.55,55.96-33.57,0-51.55-22.38-51.55-55.96V1511.77a99.79,99.79,0,0,0-19.67-2.03,94.111,94.111,0,0,0-19.33,2.03v131.26C6109.18,1703.4,6145.81,1734.94,6199.39,1734.94Zm209.77-.34c44.08,0,69.86-20.35,69.86-53.92,0-31.88-25.44-43.75-60.37-49.18-27.47-4.41-34.59-9.5-34.59-20.01,0-10.18,8.82-16.62,29.17-16.62a96.057,96.057,0,0,1,47.13,12.21c7.8-6.11,12.89-15.6,14.59-27.47-10.52-7.47-31.2-15.61-60.37-15.61-40.69,0-67.48,20.35-67.48,50.2,0,33.92,27.13,44.43,55.61,48.84,28.83,4.41,37.98,10.52,37.98,21.37s-8.13,19.33-30.86,19.33c-25.43,0-39.67-8.82-49.51-15.94-8.14,5.09-14.58,14.24-17.63,26.45C6351.84,1722.06,6373.21,1734.6,6409.16,1734.6Zm269.68-98.01c0-43.08-30.52-72.59-73.59-72.59-45.78,0-80.71,35.96-80.71,85.81,0,52.57,34.59,84.46,82.74,84.46,32.22,0,53.25-11.87,66.81-22.73-1.36-9.83-8.14-20.69-16.62-26.11-10.51,7.46-24.07,16.61-47.47,16.61-26.79,0-43.07-16.27-46.12-42.73h113.6A173.21,173.21,0,0,0,6678.84,1636.59Zm-114.62-2.72c2.71-22.04,17.29-38.66,41.03-38.66,26.11,0.34,35.95,19.67,35.95,38.66h-76.98ZM6803.41,1564c-30.86,0-55.61,12.21-67.82,23.07v142.11a92.826,92.826,0,0,0,19.33,1.69,90.962,90.962,0,0,0,19.33-1.69V1605.72c7.12-4.07,17.63-6.44,30.18-6.44a96.574,96.574,0,0,1,24.42,3.05c6.78-8.82,10.17-21.03,10.17-33.24C6828.85,1565.36,6817.32,1564,6803.41,1564Zm292.69,45.79a80.33,80.33,0,0,0-2.04,17.64,86.316,86.316,0,0,0,2.04,18.31h41.03v48.16c-9.5,3.06-21.7,5.09-37.64,5.09-48.5,0-72.24-31.2-72.24-78.34,0-50.88,31.54-79.03,71.56-79.03,22.04,0,37.64,5.09,51.88,14.58,11.53-6.78,17.98-18.99,20.01-32.22-14.58-10.17-38.32-18.99-71.55-18.99-63.76,0-113.27,44.77-113.27,115.99,0,70.55,46.8,113.96,113.27,113.96,33.57,0,58.33-7.8,75.96-16.95v-108.2H7096.1ZM7307.28,1564c-30.86,0-55.61,12.21-67.82,23.07v142.11a92.885,92.885,0,0,0,19.33,1.69,90.962,90.962,0,0,0,19.33-1.69V1605.72c7.12-4.07,17.63-6.44,30.18-6.44a96.574,96.574,0,0,1,24.42,3.05c6.78-8.82,10.17-21.03,10.17-33.24C7332.72,1565.36,7321.19,1564,7307.28,1564Zm151.91,170.27c49.51,0,85.8-35.62,85.8-85.13,0-50.2-34.93-85.47-84.44-85.47s-85.8,35.61-85.8,85.47C7374.75,1699.33,7409.68,1734.27,7459.19,1734.27Zm0.68-33.58c-28.83,0-46.46-21.03-46.46-51.55,0-30.87,17.63-52.24,46.46-52.24s46.46,21.37,46.46,52.24C7506.33,1679.66,7488.69,1700.69,7459.87,1700.69Zm269.54-132.62a95.008,95.008,0,0,0-19.33,1.7V1693.9c-9.83,4.08-20.34,6.11-32.89,6.11-32.22,0-39-14.58-39-40.7v-89.54a89.7,89.7,0,0,0-18.99-1.7,98.232,98.232,0,0,0-19.67,1.7V1670.5c0,39.01,22.38,63.77,72.57,63.77,35.61,0,60.37-9.16,76.64-16.96V1569.77A92.838,92.838,0,0,0,7729.41,1568.07Zm155.1-4.07c-30.52,0-55.95,11.88-71.55,24.76v203.16a94.886,94.886,0,0,0,19.33,1.7,87.8,87.8,0,0,0,18.99-1.7v-62.4c10.17,3.39,21.02,4.75,34.59,4.75,44.76,0,85.12-31.55,85.12-85.81C7970.99,1592.83,7933.68,1564,7884.51,1564Zm-1.36,136.01c-12.54,0-22.72-2.03-31.87-6.44v-86.49a63.883,63.883,0,0,1,31.54-7.8c29.5,0,49.51,18.65,49.51,49.52C7932.33,1680.68,7912.32,1700.01,7883.15,1700.01Z" transform="translate(-4200 -204)"/>
      <path id="logo-2" data-name="logo" class="cls-2" d="M5465.49,711.3v473.75l151.6,151.6V862.819L5958.27,1204l-325.44,325.44L4874.75,771.361l325.44-325.442L5465.57,711.3h-0.08Zm60.14,925.34-325.44,325.44L4934.81,1696.7h0.08V1526.15l-151.6-151.6,151.6-151.6-151.6-151.6v473.83L4442.11,1204l325.44-325.442Z" transform="translate(-4200 -204)"/>
    </g>
  </g>
</svg>
